<?xml version="1.0" standalone="no"?>
<!DOCTYPE svg PUBLIC "-//W3C//DTD SVG 20010904//EN"
 "http://www.w3.org/TR/2001/REC-SVG-20010904/DTD/svg10.dtd">
<svg version="1.0" xmlns="http://www.w3.org/2000/svg"
 width="236.000000pt" height="236.000000pt" viewBox="0 0 236.000000 236.000000"
 preserveAspectRatio="xMidYMid meet">
<metadata>
Created by potrace 1.11, written by Peter Selinger 2001-2013
</metadata>
<g transform="translate(0.000000,236.000000) scale(0.100000,-0.100000)"
fill="#000000" stroke="none">
<path d="M1090 1775 c-158 -45 -267 -190 -258 -345 5 -77 26 -126 80 -179 92
-92 230 -91 276 1 19 40 1 71 -70 118 -103 68 -151 156 -128 239 38 144 230
189 365 87 36 -28 90 -124 100 -178 12 -64 32 -45 53 50 35 150 36 162 19 162
-9 0 -19 -4 -22 -10 -13 -21 -84 -10 -159 26 -91 43 -171 52 -256 29z"/>
<path d="M1262 1223 c-44 -22 -70 -73 -54 -107 6 -14 43 -48 81 -76 127 -93
182 -176 165 -253 -25 -118 -138 -186 -287 -174 -127 11 -234 82 -288 193 -18
35 -34 87 -37 114 -8 89 -28 61 -62 -87 -17 -76 -34 -146 -36 -155 -6 -22 -1
-22 52 -4 51 18 83 11 194 -43 109 -53 184 -67 282 -52 143 22 265 106 317
216 33 70 39 168 15 236 -23 65 -107 159 -168 188 -51 25 -128 27 -174 4z"/>
</g>
</svg>
